<?xml version="1.0" standalone="no"?>
<!DOCTYPE svg PUBLIC "-//W3C//DTD SVG 20010904//EN"
 "http://www.w3.org/TR/2001/REC-SVG-20010904/DTD/svg10.dtd">
<svg version="1.0" xmlns="http://www.w3.org/2000/svg"
 width="512.000000pt" height="512.000000pt" viewBox="0 0 512.000000 512.000000"
 preserveAspectRatio="xMidYMid meet">
<metadata>
Created by potrace 1.11, written by Peter Selinger 2001-2013
</metadata>
<g transform="translate(0.000000,512.000000) scale(0.100000,-0.100000)"
fill="#000000" stroke="none">
<path d="M2012 5103 c-18 -9 -45 -32 -60 -51 -39 -51 -38 -134 0 -184 47 -61
74 -68 272 -68 l176 0 0 -164 0 -163 -72 -7 c-393 -37 -792 -195 -1127 -448
l-64 -48 -96 93 c-78 76 -107 97 -150 112 -125 41 -250 -17 -309 -144 -20 -44
-24 -64 -19 -110 7 -80 33 -123 131 -221 47 -46 86 -89 86 -94 0 -4 -20 -36
-44 -70 -133 -187 -256 -437 -320 -653 -66 -221 -91 -401 -90 -658 0 -220 14
-334 65 -539 196 -785 830 -1419 1615 -1615 211 -53 318 -65 554 -65 236 0
343 12 554 65 627 157 1173 601 1456 1184 104 215 167 417 206 660 22 135 25
464 5 605 -51 373 -175 696 -384 998 l-50 72 105 108 c86 88 108 117 123 161
64 193 -123 380 -316 316 -43 -15 -72 -37 -156 -117 -72 -71 -106 -97 -115
-91 -8 4 -47 34 -88 65 -312 237 -723 398 -1107 434 l-73 7 0 163 0 164 176 0
c198 0 225 7 272 68 39 51 39 133 0 184 -53 70 -38 68 -610 68 -454 0 -517 -2
-546 -17z m813 -962 c340 -50 633 -172 900 -374 103 -78 284 -259 362 -362
441 -582 517 -1363 196 -2010 -103 -208 -202 -345 -368 -510 -165 -166 -302
-265 -510 -368 -461 -229 -1011 -260 -1498 -83 -174 63 -362 166 -512 279
-103 78 -284 259 -362 362 -441 582 -517 1363 -196 2010 103 208 202 345 368
510 165 166 302 265 510 368 340 169 738 233 1110 178z"/>
<path d="M3440 3339 c-19 -11 -224 -209 -455 -439 -404 -402 -422 -418 -464
-423 -62 -8 -130 -53 -166 -111 -27 -44 -30 -58 -30 -126 0 -68 3 -82 30 -126
19 -30 49 -60 79 -79 44 -27 58 -30 126 -30 68 0 82 3 126 30 58 36 103 104
111 166 5 42 21 60 428 469 233 234 430 439 439 457 70 139 -91 291 -224 212z"/>
</g>
</svg>
